<?xml version="1.0" encoding="UTF-8"?>
<svg width="187px" height="242px" viewBox="0 0 187 242" version="1.1" xmlns="http://www.w3.org/2000/svg" xmlns:xlink="http://www.w3.org/1999/xlink">
    <title>Path</title>
    <g id="Page-1" stroke="none" stroke-width="1" fill="none" fill-rule="evenodd">
        <g id="Group-4" transform="translate(358.500000, 127.500000) scale(1, -1) translate(-358.500000, -127.500000) translate(0.000000, -229.000000)" fill="#000000" fill-rule="nonzero">
            <path d="M55.6155227,482.428261 C37.2085817,478.558446 19.6834103,465.290509 11.1963776,449.037287 C0.0640360752,427.808588 -3.13237883,392.980255 3.26045098,361.911169 C7.88974153,339.466243 20.0140739,312.377539 33.1303971,294.797523 C60.3550344,258.531829 103.671967,236.308035 133.872577,243.273702 C143.902707,245.595591 152.720403,251.013332 162.53009,260.853718 C180.055262,278.323168 186.778755,298.003941 187,331.616047 C187.109419,367.107778 175.866856,401.051583 153.932836,431.125572 C145.776467,442.292753 128.581959,459.098806 118.000724,466.175039 C94.5236075,482.096563 76.1166665,486.850907 55.6155227,482.428261 Z" id="Path"></path>
        </g>
    </g>
</svg>