<?xml version="1.0" encoding="UTF-8"?>
<svg width="188px" height="270px" viewBox="0 0 188 270" version="1.1" xmlns="http://www.w3.org/2000/svg" xmlns:xlink="http://www.w3.org/1999/xlink">
    <title>Path</title>
    <g id="Page-1" stroke="none" stroke-width="1" fill="none" fill-rule="evenodd">
        <g id="Group-4" transform="translate(212.500000, 353.500000) scale(1, -1) translate(-212.500000, -353.500000) translate(-146.000000, -3.000000)" fill="#000000" fill-rule="nonzero">
            <path d="M212.809749,708.395084 C187.802109,703.863568 163.785961,680.100741 153.099877,649.264327 C144.176446,623.622579 143.625617,581.954737 151.667722,550.123601 C165.218117,497.071707 195.844214,458.719609 237.156394,443.135615 C246.079825,439.709347 258.638728,439.046198 268.553652,441.367218 C299.510246,448.772379 322.645067,477.287772 331.458332,519.176663 C334.322643,532.439636 334.873472,561.618178 332.55999,577.423221 C323.636559,639.538147 292.349468,686.511178 248.283142,704.084618 C241.122364,706.958262 225.038155,710.495055 221.402683,709.942431 C220.962019,709.942431 217.106216,709.168758 212.809749,708.395084 Z" id="Path"></path>
        </g>
    </g>
</svg>