<?xml version="1.0" encoding="UTF-8"?>
<svg width="189px" height="272px" viewBox="0 0 189 272" version="1.1" xmlns="http://www.w3.org/2000/svg" xmlns:xlink="http://www.w3.org/1999/xlink">
    <title>Path</title>
    <g id="Page-1" stroke="none" stroke-width="1" fill="none" fill-rule="evenodd">
        <g id="Group-4" transform="translate(-17.500000, 356.500000) scale(1, -1) translate(17.500000, -356.500000) translate(-376.000000, -0.000000)" fill="#000000" fill-rule="nonzero">
            <path d="M469.721222,711.378779 C425.69226,699.435291 392.146383,656.969555 380.339117,598.247405 C370.076727,547.266405 378.132152,502.810087 403.291559,470.960786 C420.726587,448.953803 448.975746,437.010315 471.15575,442.207944 C479.431871,444.198525 495.653068,452.492614 505.14302,459.570237 C530.854168,478.923111 550.165117,509.445359 559.213676,544.94406 C564.179348,564.407522 565.503528,577.788652 564.841438,600.237987 C563.958652,630.649646 560.758552,645.800182 551.158252,664.600117 C541.6683,683.178877 528.867899,696.891771 513.41914,705.075272 C499.073864,712.595246 482.852668,714.917591 469.721222,711.378779 Z" id="Path"></path>
        </g>
    </g>
</svg>