<?xml version="1.0" encoding="UTF-8"?>
<svg width="188px" height="245px" viewBox="0 0 188 245" version="1.1" xmlns="http://www.w3.org/2000/svg" xmlns:xlink="http://www.w3.org/1999/xlink">
    <title>Path</title>
    <g id="Page-1" stroke="none" stroke-width="1" fill="none" fill-rule="evenodd">
        <g id="Group-4" transform="translate(-170.500000, 142.500000) scale(1, -1) translate(170.500000, -142.500000) translate(-529.000000, -214.000000)" fill="#000000" fill-rule="nonzero">
            <path d="M641.518138,498.643706 C591.895488,492.018808 549.567036,447.521578 534.426049,386.130858 C530.226359,368.795709 528.126514,348.037696 529.342214,335.008731 C531.663095,310.496609 540.283511,289.517766 554.208798,274.832576 C570.897039,257.166182 588.137871,251.203774 611.125646,255.178712 C658.095861,263.34942 699.429649,309.834119 712.691827,369.237369 C715.786336,383.039239 717.665144,404.459742 716.780999,416.605388 C714.570636,448.404897 698.21395,478.216937 675.778765,491.135488 C665.500577,497.097896 651.906844,500.0791 641.518138,498.643706 Z" id="Path"></path>
        </g>
    </g>
</svg>