<?xml version="1.0" encoding="UTF-8"?>
<svg width="474px" height="342px" viewBox="0 0 474 342" version="1.1" xmlns="http://www.w3.org/2000/svg" xmlns:xlink="http://www.w3.org/1999/xlink">
    <title>Path</title>
    <g id="Page-1" stroke="none" stroke-width="1" fill="none" fill-rule="evenodd">
        <g id="Group-4" transform="translate(224.500000, -14.500000) scale(1, -1) translate(-224.500000, 14.500000) translate(-134.000000, -371.000000)" fill="#000000" fill-rule="nonzero">
            <path d="M344.808178,341.246684 C308.698029,336.383234 274.023452,320.466492 243.213875,294.712317 C229.852016,283.548491 219.803014,272.053065 205.447298,251.493939 C171.877006,203.633178 151.99986,160.967464 139.190144,109.23805 C134.662572,91.3317139 134,87.2419953 134,76.6308333 C134,66.9039349 134.441714,62.8142163 136.539858,56.1822401 C144.601145,30.207 161.607147,11.9690654 184.465866,4.78442453 C191.643724,2.46323286 195.287867,2.02110111 206.662012,2.02110111 C229.962445,2.02110111 243.434732,5.33708921 288.931311,22.4696944 C330.342033,37.9443055 339.065891,40.3760301 363.581038,43.0288206 C396.267901,46.5658746 418.574476,41.7024254 469.813342,19.8169039 C512.549206,1.6895023 522.266922,-0.963288178 541.923211,0.252574125 C562.462928,1.46843643 577.370788,7.65828088 590.070076,20.2590357 C604.094507,34.0756527 608.953365,48.7765333 607.849079,73.3148452 C606.19265,108.574852 588.413647,148.808841 547.002926,210.928351 C513.653492,261.110305 483.506487,293.717521 449.60491,316.26624 C431.273764,328.424863 415.261618,335.388438 395.826186,339.699223 C386.218899,341.799348 355.740608,342.794145 344.808178,341.246684 Z" id="Path"></path>
        </g>
    </g>
</svg>